<svg width="1160.5" height="1174.2" version="1.1" viewBox="0 0 307.06 310.68" xmlns="http://www.w3.org/2000/svg">
 <title>astro ui logo</title>
 <g transform="translate(-7094.4 2219.4)">
  <path id="astro-ui-body" d="m7176.6-2193c-5.5795 0-8.3671 0-10.723 1.0372a13.126 14.389 0 0 0-5.3183 4.3152c-1.5967 2.1663-2.411 5.0892-4.0437 10.936l-35.704 127.96a147.86 162.08 0 0 1 42.67-15.79l22.854-85.646a3.0109 3.3006 0 0 1 5.7776 0l19.122 70.835c-0.1032 0-0.1032-0.1033-0.1652-0.1033l4.1635 14.921 31.531 113.01c1.6328 5.8468 2.4481 8.7697 4.0437 10.935 1.4068 1.9124 3.2377 3.3976 5.3184 4.3151 2.3572 1.0383 5.1449 1.0383 10.723 1.0383h52.48c5.5836 0 8.3775 0 10.735-1.0403 2.0827-0.9186 3.9147-2.4069 5.3235-4.3224 1.5945-2.1694 2.4068-5.0985 4.0333-10.955l35.532-127.95c-11.33 9.4993-32.894 8.4166-45.069 0.516l-20.544 100.95c-0.3819 1.4057-1.5564 2.3676-2.893 2.3655-1.3355 0-29.488 0.9392-29.863-0.4644l-18.973-72.68a147.91 162.13 0 0 1 0.1032 0.1032l-1.4119-5.0851-2.5698-9.844h-0.1755l-31.376-112.99c-1.6256-5.855-2.4388-8.7851-4.0334-10.954a13.13 14.393 0 0 0-5.3225-4.3224c-2.3583-1.0403-5.1511-1.0403-10.736-1.0403z" stroke-width=".85898"/>
  <path id="astro-ui-flame" d="m7354.6-2085.3c8.4879 0.1032 16.84-4.8374 23.082-13.85 1.5523-2.2448 0.7535-6.3896 0.6296-9.7232 0 0-0.1032-16.427-7.6931-27.066 0.2477 5.9098-2.5823 11.012-6.3112 11.397-6.3907 0.6605-6.7468-8.1772-7.0347-15.347v-0.6503c-0.4438-10.882-5.0273-19.777-11.158-23.093 1.0414 2.9023 1.6544 6.142 1.7876 9.4735 0.4231 10.379-3.2594 14.641-7.5436 19.593-3.4069 3.9406-7.1946 8.3176-9.588 16.565-1.2901 4.4411-1.8103 9.586-1.6049 14.465 0.5057 10.426 15.316 18.129 25.465 18.225z" clip-rule="evenodd" fill="#f95" stroke-width="1.0299"/>
 </g>
</svg>
